<?xml version="1.0" encoding="UTF-8" standalone="no"?>
<svg
   xmlns:dc="http://purl.org/dc/elements/1.1/"
   xmlns:cc="http://creativecommons.org/ns#"
   xmlns:rdf="http://www.w3.org/1999/02/22-rdf-syntax-ns#"
   xmlns:svg="http://www.w3.org/2000/svg"
   xmlns="http://www.w3.org/2000/svg"
   viewBox="0 0 616.25336 351.84"
   height="351.84"
   width="616.25336"
   xml:space="preserve"
   id="svg2"
   version="1.1"><metadata
     id="metadata8"><rdf:RDF><cc:Work
         rdf:about=""><dc:format>image/svg+xml</dc:format><dc:type
           rdf:resource="http://purl.org/dc/dcmitype/StillImage" /></cc:Work></rdf:RDF></metadata><defs
     id="defs6" /><g
     transform="matrix(1.3333333,0,0,-1.3333333,0,351.84)"
     id="g10"><g
       transform="scale(0.1)"
       id="g12"><path
         id="path14"
         style="fill:#1279be;fill-opacity:1;fill-rule:nonzero;stroke:none"
         d="m 2739.8,2203.85 h -580.01 c -64.51,-0.55 -131.16,4.43 -195.21,-8.1 -125.42,-24.52 -206.87,-171.59 -206.89,-314.87 0,-28.17 20.02,-28.93 27.31,-13.93 23.16,47.69 106.13,80.7 190.25,81.4 0,0 483.45,-6.38 485.09,-6.38 182.84,0 224.87,61.04 265.17,152.42 11.07,25.06 22.53,70.7 25.02,97.7 0.6,6.32 -4.39,11.76 -10.73,11.76" /><path
         id="path16"
         style="fill:#1279be;fill-opacity:1;fill-rule:nonzero;stroke:none"
         d="m 2310.95,2638.77 c -439.81,0 -797.64,-357.82 -797.64,-797.64 0,-439.83 357.83,-797.63 797.64,-797.63 439.8,0 797.64,357.8 797.64,797.63 0,439.82 -357.84,797.64 -797.64,797.64 m 5.61,-1460.37 c -311.31,0 -329.48,291.77 -293.97,351.42 14.61,24.55 41.92,40.77 71.2,40.99 98.05,0.76 145.43,1.57 171.85,1.79 230.35,1.92 306.9,181.65 311.8,232.96 0.45,4.79 -3.34,8.87 -8.13,8.93 -11.25,0.11 -34.94,0.22 -76.32,-0.13 -95.37,-0.78 -491.28,0 -491.28,0 -187.09,-1.52 -221.74,-133.98 -181.08,-266.87 19.35,-63.19 50.42,-138.07 92.78,-195.1 18.12,-24.37 2.82,-39.77 -14.94,-24.74 -150.03,126.77 -240.28,284.95 -240.28,520.78 0,373.17 319.98,644.13 647.14,644.13 374.22,0 663.78,-319.57 663.78,-643.56 0,-372.78 -280.49,-670.6 -652.55,-670.6" /><path
         id="path18"
         style="fill:#1279be;fill-opacity:1;fill-rule:nonzero;stroke:none"
         d="m 433.531,740.941 c 0,0 101.082,0 101.082,-106.269 V 304.07 c 0,-40.129 16.848,-47.351 32.117,-48.929 14.43,-1.621 24.848,-10.442 24.848,-28.922 v -27.258 c 0,-20.859 -9.609,-34.481 -33.695,-34.481 -54.539,0 -124.352,14.43 -124.352,131.559 v 444.902" /><path
         id="path20"
         style="fill:#1279be;fill-opacity:1;fill-rule:nonzero;stroke:none"
         d="m 1245.38,587.262 c 116.34,0 181.32,-82.633 181.32,-194.953 0,-17.637 -15.24,-34.5 -35.3,-34.5 h -249.5 c 6.42,-73.797 60.97,-112.321 122.74,-112.321 37.71,0 69,14.453 88.24,26.481 20.06,9.633 34.5,7.211 44.93,-11.219 l 9.63,-16.051 c 9.63,-18.449 6.42,-34.519 -11.24,-44.937 -26.47,-16.832 -74.61,-40.922 -138.77,-40.922 -135.6,0 -219.84,97.89 -219.84,214.211 0,125.949 85.03,214.211 207.79,214.211 m 80.22,-157.371 c -1.59,56.968 -36.09,80.359 -82.62,80.359 -52.15,0 -89.05,-25.789 -98.68,-80.359 h 181.3" /><path
         id="path22"
         style="fill:#1279be;fill-opacity:1;fill-rule:nonzero;stroke:none"
         d="m 823.023,587.262 c 116.34,0 181.317,-82.633 181.317,-194.953 0,-17.637 -15.235,-34.5 -35.293,-34.5 H 719.543 c 6.422,-73.797 60.973,-112.321 122.738,-112.321 37.711,0 69,14.453 88.242,26.481 20.059,9.633 34.516,7.211 44.93,-11.219 l 9.633,-16.051 C 994.715,226.25 991.5,210.18 973.844,199.762 947.375,182.93 899.254,158.84 835.051,158.84 c -135.574,0 -219.821,97.89 -219.821,214.211 0,125.949 85.032,214.211 207.793,214.211 m 80.219,-157.371 c -1.59,56.968 -36.09,80.359 -82.621,80.359 -52.148,0 -89.047,-25.789 -98.68,-80.359 h 181.301" /><path
         id="path24"
         style="fill:#1279be;fill-opacity:1;fill-rule:nonzero;stroke:none"
         d="m 3091.3,246.289 9.63,14.441 c 12.03,16.86 25.68,18.442 45.72,8.032 19.26,-10.442 49.74,-28.071 91.48,-28.071 35.28,0 56.96,16.047 56.96,41.7 0,66.597 -203,41.718 -203,182.14 0,80.219 70.62,122.731 156.46,122.731 54.53,0 92.24,-17.653 113.91,-29.672 18.45,-9.641 20.87,-26.488 12.03,-44.942 l -8.01,-14.429 c -9.64,-19.258 -24.88,-21.66 -44.92,-12.848 -17.67,8.039 -44.13,20.07 -77.83,20.07 -35.3,0 -55.37,-14.453 -55.37,-40.109 0,-67.41 202.98,-40.941 202.98,-180.512 0,-72.211 -60.96,-125.968 -155.63,-125.968 -65.78,0 -111.53,24.859 -136.4,41.73 -18.45,10.406 -20.04,28.078 -8.01,45.707" /><path
         id="path26"
         style="fill:#1279be;fill-opacity:1;fill-rule:nonzero;stroke:none"
         d="m 4321.84,246.289 9.63,14.441 c 12.03,16.86 25.68,18.442 45.72,8.032 19.26,-10.442 49.77,-28.071 91.46,-28.071 35.32,0 56.98,16.047 56.98,41.7 0,66.597 -203,41.718 -203,182.14 0,80.219 70.6,122.731 156.44,122.731 54.57,0 92.26,-17.653 113.93,-29.672 18.47,-9.641 20.87,-26.488 12.03,-44.942 l -8,-14.429 c -9.65,-19.258 -24.89,-21.66 -44.93,-12.848 -17.67,8.039 -44.13,20.07 -77.83,20.07 -35.3,0 -55.37,-14.453 -55.37,-40.109 0,-67.41 202.98,-40.941 202.98,-180.512 0,-72.211 -60.98,-125.968 -155.62,-125.968 -65.79,0 -111.54,24.859 -136.41,41.73 -18.45,10.406 -20.04,28.078 -8.01,45.707" /><path
         id="path28"
         style="fill:#1279be;fill-opacity:1;fill-rule:nonzero;stroke:none"
         d="m 4118.71,587.27 c 65.78,0 109.92,-24.079 133.98,-40.93 16.84,-11.211 17.64,-28.07 6.39,-45.711 l -10.41,-16.059 c -12.03,-18.441 -25.65,-18.441 -44.93,-8.808 -16.84,11.218 -44.11,24.867 -79.4,24.867 -75.42,0 -120.92,-56.969 -120.92,-126.758 0,-69 45.5,-128.383 124.11,-128.383 40.11,0 72.21,17.653 91.47,31.301 20.05,11.242 35.29,8.82 45.73,-10.418 l 8.03,-15.262 c 9.61,-17.64 7.21,-33.668 -8.84,-44.918 -24.87,-18.472 -74.62,-47.351 -145.21,-47.351 -135.58,0 -218.8,95.48 -218.8,214.219 0,116.32 83.22,214.211 218.8,214.211" /><path
         id="path30"
         style="fill:#1279be;fill-opacity:1;fill-rule:nonzero;stroke:none"
         d="m 1640.38,571.871 h -49.22 v 11.02 c 0,106.25 -101.1,106.25 -101.1,106.25 v -117.27 h -27.53 c -19.81,0 -35.83,-16.031 -35.83,-35.812 v -7.758 c 0,-19.801 16.02,-35.832 35.83,-35.832 h 27.53 v -196.43 c 0,-117.129 69.81,-131.578 124.38,-131.578 24.06,0 33.69,13.648 33.69,34.5 v 27.258 c 0,18.492 -10.44,27.293 -24.87,28.902 -15.24,1.617 -32.1,8.82 -32.1,48.938 v 188.41 h 49.22 c 19.78,0 35.81,16.031 35.81,35.832 v 7.758 c 0,19.781 -16.03,35.812 -35.81,35.812" /><path
         id="path32"
         style="fill:#1279be;fill-opacity:1;fill-rule:nonzero;stroke:none"
         d="m 3632.81,571.871 h -49.21 v 11.02 c 0,106.25 -101.11,106.25 -101.11,106.25 v -117.27 h -27.53 c -19.8,0 -35.83,-16.031 -35.83,-35.812 v -7.758 c 0,-19.801 16.03,-35.832 35.83,-35.832 h 27.53 v -196.43 c 0,-117.129 69.82,-131.578 124.39,-131.578 24.05,0 33.69,13.648 33.69,34.5 v 27.258 c 0,18.492 -10.45,27.293 -24.87,28.902 -15.25,1.617 -32.1,8.82 -32.1,48.938 v 188.41 h 49.21 c 19.78,0 35.82,16.031 35.82,35.832 v 7.758 c 0,19.781 -16.04,35.812 -35.82,35.812" /><path
         id="path34"
         style="fill:#1279be;fill-opacity:1;fill-rule:nonzero;stroke:none"
         d="m 2410.51,516.852 c -29.78,49.437 -80.57,74.5 -150.97,74.5 -70.38,0 -121.19,-25.063 -150.97,-74.5 -27.58,-45.813 -31.14,-104.641 -31.14,-150.801 0,-57.86 0,-211.539 182.11,-211.539 182.11,0 182.11,153.679 182.11,211.539 0,46.16 -3.54,104.988 -31.14,150.801 M 2335.55,271.77 c -13.47,-19.661 -36.21,-28.04 -76.01,-28.04 -65.49,0 -92.87,17.008 -92.87,122.321 0,115.031 31.27,136.078 92.87,136.078 61.6,0 92.87,-21.047 92.87,-136.078 0,-41.832 -2.87,-73.91 -16.86,-94.281" /><path
         id="path36"
         style="fill:#1279be;fill-opacity:1;fill-rule:nonzero;stroke:none"
         d="m 3737.78,543.949 c 0,21.653 11.25,33.68 32.91,33.68 h 35.28 c 21.66,0 32.89,-12.027 32.89,-33.68 V 202.172 c 0,-22.453 -11.23,-33.692 -32.89,-33.692 h -35.28 c -21.66,0 -32.91,11.239 -32.91,33.692 v 341.777" /><path
         id="path38"
         style="fill:#1279be;fill-opacity:1;fill-rule:nonzero;stroke:none"
         d="m 3847.04,693.23 c 0,-32.441 -26.29,-58.718 -58.72,-58.718 -32.44,0 -58.71,26.277 -58.71,58.718 0,32.43 26.27,58.719 58.71,58.719 32.43,0 58.72,-26.289 58.72,-58.719" /><path
         id="path40"
         style="fill:#1279be;fill-opacity:1;fill-rule:nonzero;stroke:none"
         d="m 2927.22,543.949 c 0,21.653 11.25,33.68 32.88,33.68 h 35.31 c 21.66,0 32.89,-12.027 32.89,-33.68 V 202.172 c 0,-22.453 -11.23,-33.692 -32.89,-33.692 h -35.31 c -21.63,0 -32.88,11.239 -32.88,33.692 v 341.777" /><path
         id="path42"
         style="fill:#1279be;fill-opacity:1;fill-rule:nonzero;stroke:none"
         d="m 3036.49,693.23 c 0,-32.441 -26.29,-58.718 -58.72,-58.718 -32.45,0 -58.72,26.277 -58.72,58.718 0,32.43 26.27,58.719 58.72,58.719 32.43,0 58.72,-26.289 58.72,-58.719" /><path
         id="path44"
         style="fill:#1279be;fill-opacity:1;fill-rule:nonzero;stroke:none"
         d="m 2815.67,577.641 h -17 c -19.2,0 -30.19,-9.5 -32.41,-22.27 -29.5,23.891 -56.06,35.981 -104.92,35.981 -70.38,0 -121.17,-25.063 -150.96,-74.5 -27.6,-45.793 -31.15,-104.641 -31.15,-150.77 0,-57.863 0,-211.582 182.11,-211.582 47.38,0 69.59,10.41 95.53,26.82 0,-79.961 -54.24,-94.6794 -115.43,-94.6794 -37.71,0 -63.39,8.0196 -82.62,15.2384 -21.66,7.23 -33.72,1.621 -42.52,-18.4493 l -6.44,-18.4492 c -8.82,-20.8516 -3.21,-34.5 17.67,-43.3203 C 2555.58,9.62891 2601.33,0 2647.05,0 c 101.08,0 201.5,52.9492 201.5,193.332 V 543.93 c 0,21.66 -11.22,33.711 -32.88,33.711 m -78.3,-305.871 c -13.5,-19.661 -36.24,-28.04 -76.03,-28.04 -65.49,0 -92.87,17.02 -92.87,122.352 0,115.008 31.29,136.027 92.87,136.027 61.59,0 92.88,-21.019 92.88,-136.027 0,-41.891 -2.86,-73.922 -16.85,-94.312" /><path
         id="path46"
         style="fill:#1279be;fill-opacity:1;fill-rule:nonzero;stroke:none"
         d="m 2061.25,196.551 c 0.35,22.859 2.84,45.879 -32.4,44.371 -37.98,-1.66 -48.61,-0.352 -86.67,-0.332 -77.52,0.09 -80.49,2.93 -80.49,78.582 -0.04,86.168 0,308.629 0,308.629 0,106.281 -103.1,106.281 -103.1,106.281 V 400.859 h 1.11 c -0.59,-46.898 -1.27,-93.808 1.16,-140.57 3.95,-76.879 36.55,-106.73 111.25,-108.019 61.64,-1.059 95.88,0.851 157.5,-0.75 36.14,-0.911 31.29,22.929 31.64,45.031" /><path
         id="path48"
         style="fill:#1279be;fill-opacity:1;fill-rule:nonzero;stroke:none"
         d="M 399.07,742.199 H 151.82 c -24.343,-0.187 -49.41,1.063 -73.7106,-3.058 C 13.8203,728.289 0.00390625,667.48 0.00390625,613.391 c 0,-1.059 0.08593755,-1.981 0.23828175,-2.84 H 0.00390625 V 185.5 c 0,-18.871 15.30469375,-34.168 34.16799375,-34.168 h 44.6094 c 18.8671,0 34.1597,15.297 34.1597,34.168 v 232.582 h 210.528 c 16.125,0 29.219,13.078 29.219,29.219 v 39.961 c 0,16.097 -13.094,29.207 -29.219,29.207 H 112.941 v 122.57 c 57.598,0.281 175.899,0.871 176.379,0.871 69.051,0 84.922,23 100.141,57.531 4.867,11.059 9.941,36.079 9.609,44.758" /></g></g></svg>